# xmcd
#
# Track frame offsets:
#	182
#	23220
#	47920
#	66165
#	83455
#	103112
#	118687
#	136800
#	154650
#	177752
#	188880
#	206830
#	225770
#
# Disc length: 3252 seconds
#
# Revision: 1
# Processed by: cddbd v1.4PL0 Copyright (c) Steve Scherf et al.
# Submitted via: audiograbber 1.81.01
#
DISCID=a30cb20d
DTITLE=Bobik Kubat - Trubka-Trumpet
DYEAR=2000
DGENRE=Instrumental
TTITLE0=What's up (4 non blondes)
TTITLE1=Smooth operator (Sade)
TTITLE2=Everything I own (Boy George)
TTITLE3=Fragile (Sting)
TTITLE4=Fernando (ABBA)
TTITLE5=Wake me up before you (George Michael)
TTITLE6=Take on me (AHA)
TTITLE7=Daniel (Elthon John)
TTITLE8=Who it is (Michael Jackson)
TTITLE9=Yeh, yeh (Mat Bianko)
TTITLE10=It's alright (Eurythmics)
TTITLE11=Too much love will kill you (Brain May)
TTITLE12=Is there anybody there (Scorpions)
EXTD=Master Music Ltd.\nPrague\nDistribution: Bohemian Music Service Ltd.
EXTT0=
EXTT1=
EXTT2=
EXTT3=
EXTT4=
EXTT5=
EXTT6=
EXTT7=
EXTT8=
EXTT9=
EXTT10=
EXTT11=
EXTT12=
PLAYORDER=
